<mxfile host="app.diagrams.net" modified="2020-12-18T19:05:11.230Z" agent="5.0 (Windows NT 10.0; Win64; x64) AppleWebKit/537.36 (KHTML, like Gecko) Chrome/86.0.4240.198 Safari/537.36" etag="4ogKq7FtTUHYPtpJrWCq" version="14.1.0" type="github">
  <diagram id="N2_5LNJx7TZPs9ssTGrc" name="Page-1">
    <mxGraphModel dx="1422" dy="794" grid="1" gridSize="10" guides="1" tooltips="1" connect="1" arrows="1" fold="1" page="1" pageScale="1" pageWidth="850" pageHeight="1100" math="0" shadow="0">
      <root>
        <mxCell id="0" />
        <mxCell id="1" parent="0" />
        <mxCell id="P4fvbb-0Q0S0f7_MSQyN-11" style="edgeStyle=orthogonalEdgeStyle;rounded=0;orthogonalLoop=1;jettySize=auto;html=1;entryX=0.5;entryY=1;entryDx=0;entryDy=0;" edge="1" parent="1" source="P4fvbb-0Q0S0f7_MSQyN-1" target="P4fvbb-0Q0S0f7_MSQyN-2">
          <mxGeometry relative="1" as="geometry">
            <Array as="points">
              <mxPoint x="60" y="236" />
              <mxPoint x="390" y="236" />
            </Array>
          </mxGeometry>
        </mxCell>
        <mxCell id="P4fvbb-0Q0S0f7_MSQyN-17" style="edgeStyle=orthogonalEdgeStyle;rounded=0;orthogonalLoop=1;jettySize=auto;html=1;entryX=0.5;entryY=1;entryDx=0;entryDy=0;" edge="1" parent="1" source="P4fvbb-0Q0S0f7_MSQyN-1" target="P4fvbb-0Q0S0f7_MSQyN-3">
          <mxGeometry relative="1" as="geometry">
            <mxPoint x="670" y="306" as="targetPoint" />
            <Array as="points">
              <mxPoint x="60" y="236" />
              <mxPoint x="554" y="236" />
            </Array>
          </mxGeometry>
        </mxCell>
        <mxCell id="P4fvbb-0Q0S0f7_MSQyN-30" style="edgeStyle=orthogonalEdgeStyle;rounded=0;orthogonalLoop=1;jettySize=auto;html=1;entryX=0.5;entryY=1;entryDx=0;entryDy=0;" edge="1" parent="1" source="P4fvbb-0Q0S0f7_MSQyN-1" target="P4fvbb-0Q0S0f7_MSQyN-29">
          <mxGeometry relative="1" as="geometry">
            <mxPoint x="80" y="320" as="targetPoint" />
            <Array as="points">
              <mxPoint x="60" y="240" />
              <mxPoint x="780" y="240" />
            </Array>
          </mxGeometry>
        </mxCell>
        <mxCell id="P4fvbb-0Q0S0f7_MSQyN-1" value="" style="shape=cylinder3;whiteSpace=wrap;html=1;boundedLbl=1;backgroundOutline=1;size=15;" vertex="1" parent="1">
          <mxGeometry x="30" y="146" width="60" height="70" as="geometry" />
        </mxCell>
        <mxCell id="P4fvbb-0Q0S0f7_MSQyN-7" style="edgeStyle=orthogonalEdgeStyle;rounded=0;orthogonalLoop=1;jettySize=auto;html=1;entryX=0.75;entryY=1;entryDx=0;entryDy=0;" edge="1" parent="1" source="P4fvbb-0Q0S0f7_MSQyN-2" target="P4fvbb-0Q0S0f7_MSQyN-5">
          <mxGeometry relative="1" as="geometry">
            <mxPoint x="200" y="46" as="targetPoint" />
          </mxGeometry>
        </mxCell>
        <mxCell id="P4fvbb-0Q0S0f7_MSQyN-2" value="" style="ellipse;whiteSpace=wrap;html=1;" vertex="1" parent="1">
          <mxGeometry x="360" y="156" width="60" height="40" as="geometry" />
        </mxCell>
        <mxCell id="P4fvbb-0Q0S0f7_MSQyN-16" style="edgeStyle=orthogonalEdgeStyle;rounded=0;orthogonalLoop=1;jettySize=auto;html=1;entryX=0.75;entryY=1;entryDx=0;entryDy=0;" edge="1" parent="1" source="P4fvbb-0Q0S0f7_MSQyN-3" target="P4fvbb-0Q0S0f7_MSQyN-6">
          <mxGeometry relative="1" as="geometry" />
        </mxCell>
        <mxCell id="P4fvbb-0Q0S0f7_MSQyN-3" value="" style="ellipse;whiteSpace=wrap;html=1;" vertex="1" parent="1">
          <mxGeometry x="519" y="146" width="70" height="50" as="geometry" />
        </mxCell>
        <mxCell id="P4fvbb-0Q0S0f7_MSQyN-14" style="edgeStyle=orthogonalEdgeStyle;rounded=0;orthogonalLoop=1;jettySize=auto;html=1;entryX=0.855;entryY=0;entryDx=0;entryDy=4.35;entryPerimeter=0;" edge="1" parent="1" source="P4fvbb-0Q0S0f7_MSQyN-5" target="P4fvbb-0Q0S0f7_MSQyN-1">
          <mxGeometry relative="1" as="geometry">
            <mxPoint x="120" y="146" as="targetPoint" />
            <Array as="points">
              <mxPoint x="175" y="66" />
              <mxPoint x="81" y="66" />
            </Array>
          </mxGeometry>
        </mxCell>
        <mxCell id="P4fvbb-0Q0S0f7_MSQyN-5" value="" style="rounded=0;whiteSpace=wrap;html=1;" vertex="1" parent="1">
          <mxGeometry x="140" y="94" width="70" height="25" as="geometry" />
        </mxCell>
        <mxCell id="P4fvbb-0Q0S0f7_MSQyN-15" style="edgeStyle=orthogonalEdgeStyle;rounded=0;orthogonalLoop=1;jettySize=auto;html=1;entryX=0.5;entryY=0;entryDx=0;entryDy=0;entryPerimeter=0;" edge="1" parent="1" source="P4fvbb-0Q0S0f7_MSQyN-6" target="P4fvbb-0Q0S0f7_MSQyN-1">
          <mxGeometry relative="1" as="geometry" />
        </mxCell>
        <mxCell id="P4fvbb-0Q0S0f7_MSQyN-6" value="" style="rounded=0;whiteSpace=wrap;html=1;" vertex="1" parent="1">
          <mxGeometry x="494" y="39" width="80" height="30" as="geometry" />
        </mxCell>
        <mxCell id="P4fvbb-0Q0S0f7_MSQyN-18" style="edgeStyle=orthogonalEdgeStyle;rounded=0;orthogonalLoop=1;jettySize=auto;html=1;entryX=0.5;entryY=1;entryDx=0;entryDy=0;" edge="1" parent="1" source="P4fvbb-0Q0S0f7_MSQyN-20" target="P4fvbb-0Q0S0f7_MSQyN-22">
          <mxGeometry relative="1" as="geometry">
            <Array as="points">
              <mxPoint x="70" y="536" />
              <mxPoint x="400" y="536" />
            </Array>
          </mxGeometry>
        </mxCell>
        <mxCell id="P4fvbb-0Q0S0f7_MSQyN-19" style="edgeStyle=orthogonalEdgeStyle;rounded=0;orthogonalLoop=1;jettySize=auto;html=1;entryX=0.5;entryY=1;entryDx=0;entryDy=0;" edge="1" parent="1" source="P4fvbb-0Q0S0f7_MSQyN-20" target="P4fvbb-0Q0S0f7_MSQyN-24">
          <mxGeometry relative="1" as="geometry">
            <mxPoint x="680" y="606" as="targetPoint" />
            <Array as="points">
              <mxPoint x="70" y="536" />
              <mxPoint x="680" y="536" />
            </Array>
          </mxGeometry>
        </mxCell>
        <mxCell id="P4fvbb-0Q0S0f7_MSQyN-20" value="" style="shape=cylinder3;whiteSpace=wrap;html=1;boundedLbl=1;backgroundOutline=1;size=15;" vertex="1" parent="1">
          <mxGeometry x="40" y="446" width="60" height="70" as="geometry" />
        </mxCell>
        <mxCell id="P4fvbb-0Q0S0f7_MSQyN-21" style="edgeStyle=orthogonalEdgeStyle;rounded=0;orthogonalLoop=1;jettySize=auto;html=1;entryX=0.75;entryY=1;entryDx=0;entryDy=0;" edge="1" parent="1" source="P4fvbb-0Q0S0f7_MSQyN-22" target="P4fvbb-0Q0S0f7_MSQyN-26">
          <mxGeometry relative="1" as="geometry">
            <mxPoint x="210" y="346" as="targetPoint" />
          </mxGeometry>
        </mxCell>
        <mxCell id="P4fvbb-0Q0S0f7_MSQyN-22" value="" style="ellipse;whiteSpace=wrap;html=1;" vertex="1" parent="1">
          <mxGeometry x="370" y="456" width="60" height="40" as="geometry" />
        </mxCell>
        <mxCell id="P4fvbb-0Q0S0f7_MSQyN-23" style="edgeStyle=orthogonalEdgeStyle;rounded=0;orthogonalLoop=1;jettySize=auto;html=1;entryX=0.75;entryY=1;entryDx=0;entryDy=0;" edge="1" parent="1" source="P4fvbb-0Q0S0f7_MSQyN-24" target="P4fvbb-0Q0S0f7_MSQyN-28">
          <mxGeometry relative="1" as="geometry" />
        </mxCell>
        <mxCell id="P4fvbb-0Q0S0f7_MSQyN-24" value="" style="ellipse;whiteSpace=wrap;html=1;" vertex="1" parent="1">
          <mxGeometry x="645" y="446" width="70" height="50" as="geometry" />
        </mxCell>
        <mxCell id="P4fvbb-0Q0S0f7_MSQyN-25" style="edgeStyle=orthogonalEdgeStyle;rounded=0;orthogonalLoop=1;jettySize=auto;html=1;entryX=0.855;entryY=0;entryDx=0;entryDy=4.35;entryPerimeter=0;" edge="1" parent="1" source="P4fvbb-0Q0S0f7_MSQyN-26" target="P4fvbb-0Q0S0f7_MSQyN-20">
          <mxGeometry relative="1" as="geometry">
            <mxPoint x="130" y="446" as="targetPoint" />
            <Array as="points">
              <mxPoint x="185" y="366" />
              <mxPoint x="91" y="366" />
            </Array>
          </mxGeometry>
        </mxCell>
        <mxCell id="P4fvbb-0Q0S0f7_MSQyN-26" value="" style="rounded=0;whiteSpace=wrap;html=1;" vertex="1" parent="1">
          <mxGeometry x="150" y="394" width="70" height="25" as="geometry" />
        </mxCell>
        <mxCell id="P4fvbb-0Q0S0f7_MSQyN-27" style="edgeStyle=orthogonalEdgeStyle;rounded=0;orthogonalLoop=1;jettySize=auto;html=1;entryX=0.5;entryY=0;entryDx=0;entryDy=0;entryPerimeter=0;" edge="1" parent="1" source="P4fvbb-0Q0S0f7_MSQyN-28" target="P4fvbb-0Q0S0f7_MSQyN-20">
          <mxGeometry relative="1" as="geometry" />
        </mxCell>
        <mxCell id="P4fvbb-0Q0S0f7_MSQyN-28" value="" style="rounded=0;whiteSpace=wrap;html=1;" vertex="1" parent="1">
          <mxGeometry x="620" y="339" width="80" height="30" as="geometry" />
        </mxCell>
        <mxCell id="P4fvbb-0Q0S0f7_MSQyN-29" value="" style="ellipse;whiteSpace=wrap;html=1;" vertex="1" parent="1">
          <mxGeometry x="740" y="150" width="80" height="44" as="geometry" />
        </mxCell>
      </root>
    </mxGraphModel>
  </diagram>
</mxfile>
